# xmcd CD database file
#
# Track frame offsets:
#	187
#	19065
#	44940
#	64552
#	80180
#	99997
#	120627
#	138170
#	152740
#	173272
#	204950
#	223767
#	245365
#	270950
#	290595
#
# Disc length: 4108 seconds
#
# Revision: 5
# Processed by: cddbd v1.5.2PL0 Copyright (c) Steve Scherf et al.
# Submitted via: CDex 1.70beta2
#
DISCID=ce100a0f
DTITLE=山下達郎 - Best PackⅠ
DYEAR=1986
DGENRE=J-POP(J)
TTITLE0=Curcus Town
TTITLE1=Windy Lady
TTITLE2=Minnie
TTITLE3=Last Step
TTITLE4=夏の陽
TTITLE5=Love Space
TTITLE6=素敵な午後は
TTITLE7=Candy
TTITLE8=Dancer
TTITLE9=Solid Slider
TTITLE10=Let's Dance Baby
TTITLE11=ついておいで(Follow Me Along)
TTITLE12=Bomber
TTITLE13=潮騒(The Whispering Sea)
TTITLE14=This Could Be the Night
EXTD=YEAR: 1986
EXTT0=
EXTT1=
EXTT2=
EXTT3=
EXTT4=
EXTT5=
EXTT6=
EXTT7=
EXTT8=
EXTT9=
EXTT10=
EXTT11=
EXTT12=
EXTT13=
EXTT14=
PLAYORDER=
